# xmcd CD database file
#
# Track frame offsets:
#	150
#	32212
#	55087
#	78000
#	97350
#	122475
#	150037
#
# Disc length: 2495 seconds
#
# Revision: 0
# Processed by: cddbd v1.4PL0 Copyright (c) Steve Scherf et al.
# Submitted via: CDex 1.50beta10
#
DISCID=4709bd07
DTITLE=Roy Haynes - Sugar Roy
DYEAR=1976
DGENRE=Jazz
TTITLE0=Receipt please
TTITLE1=Moon and sand
TTITLE2=Little waltz
TTITLE3=Snap crackle
TTITLE4=Well you needn't
TTITLE5=First trip
TTITLE6=Heavy duty
EXTD=YEAR: 1976
EXTT0=
EXTT1=
EXTT2=
EXTT3=
EXTT4=
EXTT5=
EXTT6=
PLAYORDER=
